<svg aria-hidden="true" style="width:0;height:0;position:absolute;overflow:hidden" xmlns="http://www.w3.org/2000/svg"><defs><symbol id="icon-creations-line__svg" viewBox="0 0 42 32"><path fill="#fff" style="fill:var(--color1,#fff)" opacity=".8" d="M1.372 31.561c-.431.116-.889.085-1.372-.097l.177-.469c.399.15.749.167 1.065.082.318-.086.622-.281.915-.589.593-.624 1.107-1.676 1.57-3.059.822-2.454 1.446-5.836 2.105-9.403v-.002l.247-1.335C6.83 12.655 7.66 8.51 8.896 5.372c.618-1.569 1.345-2.906 2.23-3.853.889-.953 1.947-1.52 3.208-1.52 1.141 0 2.134.528 3 1.412.863.881 1.612 2.126 2.278 3.597 1.332 2.942 2.361 6.854 3.284 10.742.222.936.438 1.87.651 2.79v.002c.673 2.913 1.313 5.68 2.007 7.888.457 1.453.932 2.644 1.446 3.468.362.58.72.942 1.078 1.11l.005-.014c.399.15.749.167 1.065.082.318-.086.622-.28.915-.589.593-.624 1.107-1.676 1.57-3.059.822-2.454 1.446-5.836 2.105-9.403l.002-.008.246-1.329c.751-4.034 1.581-8.179 2.817-11.317.618-1.569 1.345-2.906 2.23-3.853.889-.953 1.947-1.52 3.208-1.52 1.142 0 2.133.528 2.996 1.413.859.881 1.604 2.127 2.264 3.598 1.321 2.942 2.334 6.855 3.242 10.743.219.935.431 1.869.64 2.788l.001.004c.662 2.913 1.291 5.68 1.977 7.888.451 1.453.922 2.644 1.433 3.468.359.579.716.942 1.073 1.109l.005-.015c.398.15.751.167 1.072.082.323-.086.634-.282.935-.591.61-.625 1.147-1.678 1.637-3.061.874-2.463 1.565-5.861 2.293-9.443l.001-.006.263-1.291c.826-4.034 1.731-8.179 3.023-11.317.646-1.569 1.397-2.905 2.297-3.851.905-.951 1.971-1.518 3.232-1.518 1.141 0 2.134.528 3 1.412.863.881 1.612 2.126 2.278 3.597 1.332 2.942 2.361 6.854 3.284 10.742.222.937.438 1.872.651 2.792.674 2.913 1.313 5.679 2.008 7.887.457 1.453.932 2.644 1.446 3.468.521.835 1.035 1.219 1.55 1.219v.501c-.79 0-1.434-.588-1.975-1.455-.548-.878-1.039-2.119-1.499-3.583-.701-2.229-1.347-5.023-2.021-7.941l-.001-.004c-.212-.916-.426-1.843-.646-2.77-.923-3.891-1.943-7.759-3.253-10.652-.655-1.446-1.375-2.632-2.179-3.453C72.467.94 71.595.496 70.626.496c-1.091 0-2.034.485-2.869 1.362-.84.882-1.562 2.154-2.197 3.697-1.272 3.086-2.168 7.184-2.996 11.226l-.264 1.294-.001.006c-.726 3.572-1.424 7.009-2.311 9.508-.496 1.398-1.063 2.537-1.751 3.243-.347.356-.733.611-1.166.726a2.055 2.055 0 0 1-.735.058v.002c-.79 0-1.432-.588-1.97-1.456-.545-.879-1.031-2.119-1.485-3.583-.692-2.229-1.327-5.024-1.991-7.942l-.001-.003-.001-.004c-.208-.915-.418-1.841-.635-2.766-.908-3.892-1.913-7.759-3.211-10.652-.649-1.446-1.365-2.632-2.166-3.453C44.078.941 43.209.497 42.239.497c-1.091 0-2.023.484-2.841 1.36-.823.882-1.522 2.152-2.13 3.695-1.216 3.086-2.038 7.183-2.791 11.225l-.248 1.338c-.657 3.558-1.288 6.979-2.122 9.469-.468 1.398-1.01 2.538-1.682 3.245-.339.357-.72.613-1.148.728a2.016 2.016 0 0 1-.728.058c-.789 0-1.434-.588-1.975-1.455-.548-.878-1.038-2.119-1.499-3.583-.701-2.229-1.347-5.023-2.021-7.941-.212-.917-.427-1.846-.647-2.773-.924-3.891-1.943-7.759-3.253-10.652-.655-1.446-1.375-2.632-2.18-3.453C16.173.94 15.301.496 14.332.496c-1.091 0-2.023.484-2.841 1.36-.823.882-1.522 2.152-2.13 3.695-1.216 3.086-2.038 7.183-2.791 11.225l-.248 1.338c-.657 3.558-1.288 6.979-2.122 9.469-.468 1.398-1.01 2.538-1.682 3.245-.339.357-.72.612-1.148.728z"/></symbol><symbol id="icon-creations-red__svg" viewBox="0 0 44 32"><path fill="#df3d3a" style="fill:var(--color2,#df3d3a)" d="M0 15.411V0h17.875v11.603C17.875 23.69 11.917 30.489 0 32v-6.346c3.01-.786 5.068-1.934 6.173-3.445 1.167-1.511 1.874-3.777 2.119-6.799H-.001zM25.645 15.411V0H43.52v11.603c0 12.087-5.958 18.886-17.875 20.397v-6.346c3.01-.786 5.068-1.934 6.173-3.445 1.167-1.511 1.874-3.777 2.119-6.799h-8.293z"/></symbol></defs></svg>